<svg width="1129" height="104" viewBox="0 0 1129 104" fill="none" xmlns="http://www.w3.org/2000/svg">
<path d="M0.681641 2.5625H95.5303C115.818 2.34277 133.03 19.4082 132.737 39.7695C132.737 47.167 130.76 53.9053 126.805 59.9111C122.923 65.8438 117.723 70.3848 111.277 73.3877L132.737 101H91.8682L73.3379 76.9766H39.0605V101H0.681641V2.5625ZM85.8623 31.3467H39.0605V48.1191H85.8623C88.2061 48.1191 90.1836 47.3135 91.7949 45.7021C93.4795 44.0176 94.2852 42.04 94.2852 39.7695C94.2852 35.082 90.5498 31.3467 85.8623 31.3467ZM144.676 101.073V2.63574H259.886V27.8311H183.055V40.4287H259.886V63.207H183.055V75.8047H259.886V101.073H144.676ZM310.569 34.9355C310.569 39.2568 322.508 39.8428 337.962 40.5752C365.428 41.9668 404.026 43.8711 403.953 68.5537C403.953 96.6787 371.727 103.344 337.156 103.344C302.659 103.271 274.021 99.0957 270.359 68.5537H310.569C314.964 76.1709 325.145 78.1484 337.156 78.1484C349.095 78.1484 363.743 76.1709 363.743 68.5537C363.743 64.2324 351.805 63.5732 336.351 62.8408C308.885 61.4492 270.286 59.5449 270.359 34.9355C270.359 6.81055 302.586 0.0722656 337.156 0.0722656C371.653 0.291992 400.291 4.17383 403.953 34.9355H363.743C359.349 27.1719 349.168 25.3408 337.156 25.3408C325.218 25.3408 310.569 27.0986 310.569 34.9355ZM478.074 0.0722656C515.135 0.0722656 545.237 10.9121 545.237 48.1191V55.2969C545.384 92.5039 515.062 103.271 478.074 103.344C441.014 103.271 410.691 92.5039 410.838 55.2969V48.1191C410.691 10.8389 441.014 0.145508 478.074 0.0722656ZM506.858 52.8799V50.4629C507.078 34.4229 493.748 31.4932 478.074 31.2734C462.327 31.4932 448.997 34.4229 449.217 50.4629V52.8799C448.997 68.9932 462.327 71.9229 478.074 72.1426C493.748 71.9229 507.078 68.9932 506.858 52.8799ZM652.757 54.6377V2.48926H691.209V100.927H647.996L595.115 40.7949V100.927H556.736V2.48926H609.544L652.757 54.6377ZM769.798 31.127L756.248 60.2041H783.274L769.798 31.127ZM694.139 101.073L746.946 2.63574H792.576L845.384 101.073H802.171L794.407 84.2275H745.115L737.352 101.073H694.139ZM944.407 54.6377V2.48926H982.859V100.927H939.646L886.766 40.7949V100.927H848.387V2.48926H901.194L944.407 54.6377ZM1065.84 33.8369H1001.02V2.63574H1128.25V33.8369L1061.08 69.7988H1128.25V101.073H1001.02V69.7988L1065.84 33.8369Z" fill="url(#paint0_linear_88_306)"/>
<defs>
<linearGradient id="paint0_linear_88_306" x1="619.533" y1="142.845" x2="622.15" y2="-58.6534" gradientUnits="userSpaceOnUse">
<stop stop-color="#1F2027" stop-opacity="0.32"/>
<stop offset="0.2" stop-color="#6C7197" stop-opacity="0.43"/>
<stop offset="0.502779" stop-color="#8E95C9" stop-opacity="0.84"/>
<stop offset="0.84" stop-color="white"/>
</linearGradient>
</defs>
</svg>
